<svg version="1.1" xmlns="http://www.w3.org/2000/svg" xmlns:xlink="http://www.w3.org/1999/xlink" width="360.000000pt" height="360.000000pt" viewBox="0,0,256,256"><g fill="#ffffff" fill-rule="nonzero" stroke="none" stroke-width="1" stroke-linecap="butt" stroke-linejoin="miter" stroke-miterlimit="10" stroke-dasharray="" stroke-dashoffset="0" font-family="none" font-weight="none" font-size="none" text-anchor="none" style="mix-blend-mode: normal"><g transform="translate(-0.07092,0.15277) scale(0.71111,0.71111)"><g transform="translate(0,360) scale(0.1,-0.1)"><path d="M1565,3589c-41,-11 -109,-71 -128,-111c-8,-18 -25,-89 -37,-158c-12,-69 -25,-134 -29,-145c-5,-12 -29,-28 -62,-39c-30,-11 -80,-32 -111,-48c-32,-15 -62,-28 -67,-28c-5,0 -62,38 -128,85c-131,93 -177,111 -252,94c-69,-15 -89,-30 -233,-176c-139,-141 -160,-170 -172,-235c-11,-61 11,-116 96,-238c44,-63 83,-120 85,-127c3,-6 -11,-47 -30,-90c-19,-43 -40,-95 -47,-116c-7,-21 -17,-40 -24,-43c-6,-2 -73,-15 -149,-28c-160,-28 -200,-48 -244,-123c-28,-48 -28,-49 -31,-249c-4,-229 2,-267 54,-324c48,-53 86,-68 240,-94c74,-13 137,-26 141,-30c4,-4 22,-44 41,-89c18,-45 40,-98 49,-118l15,-36l-75,-104c-98,-137 -107,-156 -107,-226c1,-89 22,-123 181,-279c154,-152 181,-168 271,-166c57,1 94,20 222,111c55,39 104,71 109,71c5,0 43,-15 85,-34c43,-18 94,-39 115,-45c20,-7 37,-16 37,-20c0,-3 11,-68 24,-144c29,-163 53,-212 124,-254l47,-28h225c248,0 258,2 320,66c39,41 55,90 80,239c12,68 22,125 23,126c1,1 40,17 87,36c47,19 101,42 121,51l36,16l118,-85c220,-157 270,-148 501,87c146,150 165,180 164,260c-1,56 -23,101 -101,210c-41,57 -78,109 -82,116c-4,7 5,38 21,70c16,32 40,86 52,121c12,34 23,62 24,62c0,0 65,11 142,24c148,25 186,39 229,81c57,57 60,73 63,305l3,215l-28,55c-43,82 -88,106 -259,136c-76,13 -142,24 -145,24c-4,0 -15,23 -25,52c-9,28 -31,84 -49,123l-33,71l75,104c93,129 113,171 113,235c0,81 -26,118 -186,276c-154,152 -180,169 -260,169c-53,0 -95,-20 -217,-105l-118,-83l-107,45c-59,24 -117,48 -128,53c-18,7 -24,22 -34,82c-38,241 -57,284 -149,331c-54,27 -55,27 -255,26c-111,0 -215,-5 -231,-10zM1966,3389c4,-6 19,-85 34,-174c15,-89 33,-172 39,-183c15,-27 26,-33 138,-71c51,-16 133,-51 182,-76c50,-25 104,-45 120,-45c21,0 70,30 176,105c125,89 150,103 163,93c21,-17 203,-200 220,-220c11,-14 1,-33 -71,-135c-108,-151 -127,-183 -127,-210c0,-13 22,-67 49,-120c27,-54 61,-136 76,-183c41,-128 42,-128 252,-164l178,-31v-175v-174l-177,-31c-211,-37 -214,-39 -252,-158c-14,-45 -48,-129 -76,-187c-39,-79 -51,-113 -47,-135c3,-17 51,-95 106,-175l102,-144l-124,-124l-124,-124l-142,102c-83,59 -156,104 -175,107c-25,4 -54,-6 -131,-45c-55,-28 -139,-62 -187,-77c-125,-39 -126,-41 -163,-253l-30,-177h-175h-175l-11,65c-6,36 -20,114 -30,174c-23,139 -35,154 -146,189c-46,15 -125,47 -176,72c-136,66 -139,65 -307,-55c-77,-55 -145,-100 -152,-100c-14,0 -243,226 -243,239c0,5 41,66 91,137c135,189 132,172 64,313c-30,65 -68,155 -83,201c-22,69 -32,87 -57,102c-16,9 -102,29 -190,44c-88,15 -166,32 -173,37c-17,14 -17,336 1,342c6,3 88,18 181,34c142,25 172,33 191,53c12,13 37,68 54,122c18,55 53,140 77,189c35,69 44,95 39,118c-4,16 -51,92 -106,169c-54,76 -99,143 -99,147c0,10 232,243 243,243c4,0 71,-45 148,-100c168,-119 174,-120 293,-58c45,23 128,58 185,77c74,26 109,43 123,61c13,17 27,76 44,180c14,85 29,165 34,178c9,22 13,22 174,22c111,0 167,-4 172,-11z"></path><path d="M1694,2570c-313,-43 -576,-285 -650,-598c-21,-87 -21,-256 0,-344c69,-291 293,-515 584,-584c88,-21 257,-21 344,0c322,76 558,340 599,667c19,154 -21,346 -98,478c-70,119 -209,249 -330,310c-114,57 -316,89 -449,71zM1944,2354c197,-51 359,-214 411,-414c22,-85 17,-241 -11,-321c-59,-168 -192,-301 -360,-360c-74,-27 -212,-36 -296,-20c-211,41 -404,230 -447,439c-61,297 114,588 404,673c77,23 218,24 299,3z"></path></g></g></g></svg>